<?xml version="1.0" encoding="UTF-8"?><svg id="Layer_2" xmlns="http://www.w3.org/2000/svg" xmlns:xlink="http://www.w3.org/1999/xlink" viewBox="0 0 603.89 258.67"><defs><style>.cls-1{fill:url(#linear-gradient);stroke-width:0px;}</style><linearGradient id="linear-gradient" x1="7025.59" y1="52.83" x2="6757.52" y2="248.36" gradientTransform="translate(7137.23) rotate(-180) scale(1 -1)" gradientUnits="userSpaceOnUse"><stop offset="0" stop-color="#81d6e6"/><stop offset="1" stop-color="#ffffc7"/></linearGradient></defs><path class="cls-1" d="m69.4,119.87c11.03,0,21.46,2.59,30.76,7.24,7.91-29.63,34.95-51.36,67.04-51.36,1,0,2.06,0,3.06.07C181.5,32.23,221.03,0,268.07,0c41.26,0,76.68,24.78,92.29,60.2,9.7-3.12,20.07-4.78,30.7-4.78,51.89,0,94.62,39.2,100.27,89.63,11.96-11.63,28.24-18.87,46.31-18.87,36.54,0,66.25,29.63,66.25,66.18s-29.7,66.31-66.25,66.31H69.4C31.1,258.67,0,227.58,0,189.24s31.1-69.37,69.4-69.37Z"/></svg>