<?xml version="1.0" encoding="UTF-8"?><svg id="Layer_2" xmlns="http://www.w3.org/2000/svg" xmlns:xlink="http://www.w3.org/1999/xlink" viewBox="0 0 402.79 195.55"><defs><style>.cls-1{fill:url(#linear-gradient);}.cls-1,.cls-2{stroke-width:0px;}.cls-2{fill:#fff;}</style><linearGradient id="linear-gradient" x1="6685.66" y1="-2.95" x2="6766.51" y2="166.58" gradientTransform="translate(6955.12) rotate(-180) scale(1 -1)" gradientUnits="userSpaceOnUse"><stop offset="0" stop-color="#81d6e6"/><stop offset="1" stop-color="#ffffc7"/></linearGradient></defs><path class="cls-1" d="m365.98,121.86c-6.91,0-13.29,1.93-18.74,5.12-3.26-31.3-29.7-55.81-61.93-55.81-10.1,0-19.53,2.46-28.04,6.71C253.02,34.22,216.21,0,171.3,0c-39.67,0-73.16,26.84-83.12,63.39-6.51-2.13-13.36-3.19-20.47-3.19C30.23,60.2,0,90.5,0,127.84s30.23,67.71,67.71,67.71h298.27c20.33,0,36.81-16.48,36.81-36.88s-16.48-36.81-36.81-36.81Z"/><path class="cls-2" d="m86.25,66.11c-6.44-2.06-13.36-3.19-20.46-3.19-22.86,0-43.12,11.43-55.35,28.84,11.96-19,33.16-31.56,57.28-31.56,6.78,0,13.36,1,19.47,2.92-.33.93-.66,1.99-.93,2.99Z"/><path class="cls-2" d="m401,161.46c0-20.33-16.54-36.81-36.88-36.81-6.91,0-13.29,1.93-18.8,5.12-3.19-31.3-29.57-55.81-61.79-55.81-10.17,0-19.67,2.46-28.04,6.78C251.16,37.01,214.35,2.79,169.44,2.79c-29.24,0-55.08,14.62-70.7,36.88C114.15,15.81,140.86,0,171.3,0c44.92,0,81.73,34.22,85.98,77.87,8.51-4.25,17.94-6.71,28.04-6.71,32.23,0,58.67,24.52,61.93,55.81,5.45-3.19,11.83-5.12,18.74-5.12,20.33,0,36.81,16.48,36.81,36.81,0,8.17-2.72,15.68-7.18,21.8,3.32-5.52,5.38-11.96,5.38-19Z"/></svg>