<?xml version="1.0" encoding="UTF-8"?><svg id="Layer_2" xmlns="http://www.w3.org/2000/svg" viewBox="0 0 408.1 523.41"><defs><style>.cls-1{stroke-linejoin:round;}.cls-1,.cls-2,.cls-3,.cls-4,.cls-5,.cls-6,.cls-7,.cls-8{stroke:#000;}.cls-1,.cls-9,.cls-10{fill:#fff;}.cls-1,.cls-5,.cls-8{stroke-width:5px;}.cls-2{fill:#3f1d1d;}.cls-2,.cls-3,.cls-4,.cls-5,.cls-6,.cls-7,.cls-8{stroke-miterlimit:10;}.cls-2,.cls-3,.cls-7{stroke-width:10px;}.cls-3,.cls-4{fill:#e8c6ba;}.cls-9{opacity:.2;}.cls-9,.cls-11,.cls-12,.cls-13,.cls-10{stroke-width:0px;}.cls-4{stroke-width:4.82px;}.cls-4,.cls-7,.cls-8{stroke-linecap:round;}.cls-5,.cls-7,.cls-8{fill:none;}.cls-6{fill:#e84393;stroke-width:8px;}.cls-12{fill:#74b9ff;}.cls-13{fill:#89511f;}</style></defs><g id="Hiroki"><g id="shirt"><path class="cls-10" d="m203.83,458.5c-19.29,0-35.3-6.75-47.58-20.08-34.41-37.32-29.73-114.93-29.33-120.7l10.73-24.07c-.15,2.36-.14,4.62.15,6.46l.07.3c20.95,64.72,61.11,123.5,61.52,124.09l3.16.2c.43-.47,42.87-48.13,69.43-115.35l.09-.29c.25-1.08.44-2.3.6-3.58l5.41,23.71c.16,1.56,1.85,19.2-.22,40.77-1.97,20.59-7.87,49.09-24.75,67.91-12.27,13.68-28.86,20.62-49.29,20.62Z"/><path class="cls-11" d="m136.21,301.83c21.1,64.69,61.12,123.24,61.52,123.82l6.32.41c.42-.47,41.64-46.76,68.41-112.46l3.63,15.93c.43,4.4,6.47,72.54-24.48,107.02-11.88,13.23-27.95,19.94-47.78,19.94-18.7,0-34.21-6.53-46.09-19.42-33.28-36.09-29.35-110.99-28.83-118.84l7.3-16.39m5.81-22.93l-17.08,38.33s-11.7,143.29,78.89,143.29,76.24-131.64,76.24-131.64l-8.85-38.83s.37,12.08-1.11,18.58c-26.74,67.66-69.06,114.74-69.06,114.74,0,0-40.16-58.37-61.26-123.57-1.11-6.97,2.23-20.9,2.23-20.9h0Z"/></g><path class="cls-6" d="m219.93,405.24h-34.71c-2.66,0-16.42,85.29-16.42,85.29,0,11.69,2.18,26.92,4.84,26.92h57.87c2.66,0,4.84-15.23,4.84-26.92,0,0-13.76-85.29-16.42-85.29Z"/><path class="cls-6" d="m223.82,412.27h-42.49c-3.26,0-20.1-48.42-20.1-48.42,0-3.26,2.67-5.93,5.93-5.93h70.83c3.26,0,5.93,2.67,5.93,5.93,0,0-16.84,48.42-20.1,48.42Z"/><polygon class="cls-1" points="132.61 304.59 189.65 353.96 160.58 393.96 124.88 321.43 132.61 304.59"/><polygon class="cls-1" points="277.31 306.86 216.86 353.96 247.06 393.96 285.03 323.69 277.31 306.86"/><g id="jacket"><path class="cls-12" d="m226.27,518.41c3.12-19.7,20.6-122.44,55.73-193.33,17.07,1.02,46.31,10.18,70.56,26.35,23.05,15.37,50.53,42.82,50.53,86.28v80.71h-176.83Zm-221.27,0v-76.93c0-45.11,25.47-73.13,46.83-88.69,24.95-18.18,54.46-26.85,74.07-27.73,33.44,76.89,50.25,174.22,53.34,193.35H5Z"/><path class="cls-11" d="m122.7,330.27c29.73,69.83,45.91,155.46,50.63,183.14H10v-39.59s0-32.34,0-32.34c0-43,24.35-69.77,44.78-84.65,22.71-16.54,49.21-24.93,67.93-26.55m162.27.1c14.68,1.7,40.63,9.08,64.81,25.21,14.55,9.7,26.04,21.01,34.15,33.61,9.39,14.59,14.16,30.91,14.16,48.51v34.36s0,41.35,0,41.35h-165.95c1.97-11.79,5.99-34.08,12.23-60.64,8.1-34.48,21.59-82.95,40.6-122.4m-6.01-10.39c-40.66,79.96-58.15,201.04-58.15,201.04h-36.1s-16.86-113.8-55.58-201.04C87.33,319.98,0,356.18,0,441.48c0,48.79,0,13.94,0,81.93h408.1c0-70.37,0-34.22,0-85.71,0-84.21-97.65-117.72-129.13-117.72h0Z"/></g><line class="cls-7" x1="92.81" y1="435.32" x2="92.81" y2="515.22"/><line class="cls-7" x1="317.1" y1="435.32" x2="317.1" y2="515.22"/><path class="cls-3" d="m331.19,148.03c-2.2-.51-4.45-.58-6.71-.26-11.51-80.89-57.74-113.02-120.03-113.02s-108.52,32.13-120.03,113.02c-2.26-.32-4.51-.25-6.71.26-14.9,3.48-21.72,25.76-15.23,49.76,4.55,16.85,14.45,30.05,25.1,35.22,16,72.07,73.82,124.5,116.87,124.5s100.87-52.43,116.87-124.5c10.65-5.17,20.55-18.38,25.1-35.22,6.49-24-.33-46.27-15.23-49.76Z"/><ellipse id="left_eye" class="cls-13" cx="148.14" cy="181.16" rx="17.5" ry="20"/><ellipse id="right_eye" class="cls-13" cx="262.41" cy="180.62" rx="17.5" ry="20"/><path id="mouth" class="cls-8" d="m171.34,284.94c34.85,23.68,77.16-15.43,77.16-15.43"/><path id="right_eyebrow" class="cls-4" d="m287.6,146.5c-34.34-8.62-62.16,9.06-62.16,9.06"/><path id="left_eyebrow" class="cls-4" d="m118.71,146.21c30.36-4.66,63.45,8.14,63.45,8.14"/><path id="nose" class="cls-8" d="m209.27,202.73s-28.61,28.61-19.27,35.03,18.68,1.75,18.68,1.75"/><path id="right_lense" class="cls-9" d="m177.46,212.98h-62.23c-6.6,0-6.35-5.89-6.35-12.49v-17.27c0-6.6-.25-11.51,6.35-11.51h62.23c6.6,0,12,5.4,12,12v17.27c0,6.6-5.4,12-12,12Z"/><path id="left_lense" class="cls-5" d="m177.46,212.98h-62.23c-6.6,0-6.35-5.89-6.35-12.49v-17.27c0-6.6-.25-11.51,6.35-11.51h62.23c6.6,0,12,5.4,12,12v17.27c0,6.6-5.4,12-12,12Z"/><path id="right_frame" class="cls-9" d="m230.94,212.98h62.23c6.6,0,6.35-5.89,6.35-12.49v-17.27c0-6.6.25-11.51-6.35-11.51h-62.23c-6.6,0-12,5.4-12,12v17.27c0,6.6,5.4,12,12,12Z"/><path id="right_frame-2" class="cls-5" d="m230.94,212.98h62.23c6.6,0,6.35-5.89,6.35-12.49v-17.27c0-6.6.25-11.51-6.35-11.51h-62.23c-6.6,0-12,5.4-12,12v17.27c0,6.6,5.4,12,12,12Z"/><line id="bridge" class="cls-5" x1="190.48" y1="183.63" x2="217.13" y2="183.63"/><line id="left_arm" class="cls-5" x1="108.14" y1="182.7" x2="84.46" y2="159.34"/><line id="right_arm" class="cls-5" x1="299.87" y1="181.19" x2="324.69" y2="159.86"/><path id="hair" class="cls-2" d="m180.09,17.97c21.07-15.83,53.79-14.26,77.09-10.35,22.39,3.75,50.3,20.79,65.49,43.65,31.53,47.42,24.09,111.16,1.06,111.16-10.3,0-24.42-59.62-28.04-65.81-49.8,1.37-100.84-6.98-100.84-6.98,0,0-23.44,14.03-76.87,8-5,5.51-10.67,65.39-32.59,65.39-13.99,0-42.4-145.07,94.69-145.07Z"/></g></svg>