<?xml version="1.0" encoding="UTF-8"?><svg id="Layer_2" xmlns="http://www.w3.org/2000/svg" viewBox="0 0 344 534.14"><defs><style>.cls-1{fill:#fefdf5;stroke:#a55a0f;}.cls-1,.cls-2,.cls-3,.cls-4,.cls-5,.cls-6,.cls-7,.cls-8{stroke-miterlimit:10;}.cls-1,.cls-6{stroke-width:2px;}.cls-2,.cls-3,.cls-4,.cls-5,.cls-7,.cls-8{stroke:#000;}.cls-2,.cls-3,.cls-4,.cls-7{stroke-width:9px;}.cls-2,.cls-9{fill:#512626;}.cls-3{fill:#ff7675;}.cls-4{fill:#e8c6ba;}.cls-5{stroke-width:4.22px;}.cls-5,.cls-6,.cls-7,.cls-8{fill:none;stroke-linecap:round;}.cls-6{stroke:#a05a11;}.cls-8{stroke-width:4.64px;}.cls-9,.cls-10,.cls-11,.cls-12{stroke-width:0px;}.cls-10{fill:#492a11;}.cls-11{fill:#a05a11;}.cls-12{fill:#fbc5c6;}</style></defs><g id="Olivia"><polygon id="neck" class="cls-4" points="121.99 308.83 105.78 444.23 238.08 444.23 221.87 308.83 121.99 308.83"/><path id="jacket" class="cls-3" d="m229.91,335.71c50.05,0,109.59,31.95,109.59,112.22-.72,26.25-2.68,55.54-5.4,81.71H9.9c-3.52-22.83-5.1-52.49-5.4-78.11,0-81.31,49.05-115.83,109.59-115.83,36.34,24.74,74.37,31.93,115.81,0Z"/><line id="left_arm" class="cls-7" x1="79.47" y1="451.66" x2="79.47" y2="527.83"/><line id="right_arm" class="cls-7" x1="266.27" y1="451.66" x2="266.27" y2="527.83"/><path id="face" class="cls-4" d="m277.71,162.72c-10.67-74.99-47.68-104.81-105.43-104.81s-92.72,29.79-103.4,104.78c-16.03.69-26.35,24.12-20.34,46.37,4.22,15.62,13.4,27.86,23.27,32.65,14.83,66.81,60.55,102.02,100.46,102.02s85.63-35.21,100.46-102.02c9.87-4.8,19.05-17.04,23.27-32.65,6.01-22.25-2.83-46.32-18.3-46.34Z"/><ellipse id="left_eye" class="cls-10" cx="130.59" cy="193.64" rx="16.22" ry="18.54"/><ellipse id="right_eye" class="cls-10" cx="215.5" cy="193.14" rx="16.22" ry="18.54"/><g id="left_eyebrow"><path class="cls-9" d="m106.19,170.69c6.68-9.28,19.68-12.33,30.36-9.14,3.58,1.03,6.94,2.49,9.95,4.81.6.46.71,1.33.25,1.93-.39.51-1.05.66-1.61.44-13.16-4.29-26.15-6.33-37.57,3.29-.85.73-2.08-.44-1.39-1.33h0Z"/></g><g id="left_eyebrow-2"><path class="cls-9" d="m238.81,170.81c-12.03-8.85-24.85-5.97-37.7-.83-.72.34-1.6,0-1.88-.75-.21-.55-.04-1.16.38-1.53,2.85-2.51,6.11-4.19,9.62-5.45,7.01-2.48,15.19-2.59,22.05.51,3.45,1.54,6.46,3.88,8.84,6.63.35.4.3,1.01-.1,1.36-.35.3-.85.31-1.2.05h0Z"/></g><path id="nose" class="cls-8" d="m176.74,212.32s-17.95,19.11-13.06,27.01c3.59,5.79,12.51,7.09,12.51,7.09"/><path id="hair" class="cls-2" d="m166.07,7.54c55.77-8.42,80.82-.57,121.4,38.6,49.46,47.73,42.48,169.11,27.91,234.8-2.9,13.1-52.34,34.59-57.72,31.11,15.33-100.42,20.7-123.24,3.51-198.33-56.09,14.99-115.49,11.08-170.85-1-27.34,98.66-20.09,99.08-10.89,189.61-1.52,3.91-53.84-12.66-55.74-13.75C12.42,282.17-15.7-12.87,166.07,7.54Z"/><path id="mouth" class="cls-5" d="m132.18,281.73s15.58,8.39,32.39,8.39c25.4,0,40.51-5.41,40.51-5.41"/><path class="cls-1" d="m131.97,462.88l15.47,15.8s-16.45,10.05-23.37,1.31,7.9-17.1,7.9-17.1Z"/><path class="cls-1" d="m194.19,478.68l15.26-19.4s16.85,10.44,11.99,20.51-27.25-1.11-27.25-1.11Z"/><path class="cls-1" d="m170.26,412.67c-13.22,0-42.21,8.96-42.21,42.21s39.35,30.48,44.83,30.52c11.28.08,43.04,5.43,43.04-33.85s-38.4-38.88-45.65-38.88Z"/><path class="cls-12" d="m145.1,453.56c-2.11,0-6.75,1.73-6.75,8.16s6.29,5.89,7.17,5.9c1.8.01,6.88,1.05,6.88-6.54s-6.14-7.51-7.3-7.51Z"/><path class="cls-12" d="m202.23,453.56c1.98,0,6.32,1.73,6.32,8.16s-5.89,5.89-6.72,5.9c-1.69.01-6.45,1.05-6.45-6.54s5.75-7.51,6.84-7.51Z"/><circle class="cls-11" cx="158.08" cy="452.85" r="4.03"/><circle class="cls-11" cx="191.12" cy="439.01" r="1.33"/><circle class="cls-11" cx="156.24" cy="439.01" r="1.33"/><circle class="cls-11" cx="189.29" cy="452.85" r="4.03"/><path class="cls-11" d="m173.74,454.58s-3.83.1-3.83,2.01,2.1,3.24,3.83,3.24,3.53-1.54,3.53-3.34-2.7-1.9-3.53-1.9Z"/><path class="cls-6" d="m182.72,461.31c-1.95,1.7-6.49,2.91-8.98-3.19-2.49,6.74-7.84,3.96-8.92,2.83"/><path class="cls-6" d="m141.93,456.88c1.54.13,6.85,1.25,6.85,1.25"/><path class="cls-6" d="m142.6,465.27s4.83-1.81,6.18-1.95"/><path class="cls-6" d="m205.11,456.88c-2.01-.2-6.58,1.25-6.58,1.25"/><path class="cls-6" d="m198.53,463.32c.6.67,5.57,1.95,5.57,1.95"/></g></svg>